<svg id="noun-route-4755284" xmlns="http://www.w3.org/2000/svg" width="24.606" height="27.769" viewBox="0 0 24.606 27.769">
  <path id="Path_37" data-name="Path 37" d="M126.9,20.691a.56.56,0,0,1,0-1.119h4.025a3.32,3.32,0,0,1,1.555,6.261l-10.717,5.679a2.2,2.2,0,0,0,1.035,4.155h4.025a.56.56,0,0,1,0,1.119H122.8a3.32,3.32,0,0,1-1.555-6.261l10.717-5.679a2.2,2.2,0,0,0-1.035-4.154H126.9Zm6.884,7.867a5.38,5.38,0,0,1,5.38,5.38,8.317,8.317,0,0,1-1.458,4.3,12.7,12.7,0,0,1-3.622,3.743.559.559,0,0,1-.61-.007,12.7,12.7,0,0,1-3.611-3.736,8.319,8.319,0,0,1-1.458-4.3,5.38,5.38,0,0,1,5.38-5.38Zm3.013,2.367a4.26,4.26,0,0,0-7.272,3.012,7.21,7.21,0,0,0,1.279,3.7,11.83,11.83,0,0,0,2.981,3.2,11.846,11.846,0,0,0,2.981-3.2,7.206,7.206,0,0,0,1.279-3.7,4.245,4.245,0,0,0-1.247-3.012Zm-3.013-.494a3.507,3.507,0,1,1-2.478,1.027,3.5,3.5,0,0,1,2.478-1.027Zm1.688,1.819a2.389,2.389,0,1,0,.7,1.688A2.38,2.38,0,0,0,135.475,32.249ZM119.94,14.295a5.38,5.38,0,0,1,5.38,5.38,8.307,8.307,0,0,1-1.458,4.3,12.691,12.691,0,0,1-3.622,3.743.559.559,0,0,1-.61-.007,12.7,12.7,0,0,1-3.611-3.736,8.308,8.308,0,0,1-1.458-4.3,5.38,5.38,0,0,1,5.38-5.38Zm3.012,2.367a4.259,4.259,0,0,0-7.271,3.012,7.208,7.208,0,0,0,1.279,3.7,11.842,11.842,0,0,0,2.981,3.2,11.846,11.846,0,0,0,2.981-3.2,7.206,7.206,0,0,0,1.279-3.7,4.245,4.245,0,0,0-1.247-3.012Zm-3.012-.494a3.507,3.507,0,1,1-2.479,1.027A3.493,3.493,0,0,1,119.94,16.168Zm1.688,1.819a2.389,2.389,0,1,0,.7,1.688A2.38,2.38,0,0,0,121.628,17.986Z" transform="translate(-114.56 -14.295)" fill="#0a0a5f"/>
</svg>
