<svg xmlns="http://www.w3.org/2000/svg" width="31" height="32" viewBox="0 0 31 32">
    <path fill="#95A5D5" stroke="#95A5D5" stroke-width=".6" d="M4.889 8.922C2.74 8.922 1 7.149 1 4.961 1 2.773 2.74 1 4.889 1c2.147 0 3.888 1.773 3.888 3.961 0 2.188-1.74 3.961-3.888 3.961zm0-.99c1.61 0 2.916-1.33 2.916-2.971 0-1.64-1.306-2.97-2.916-2.97-1.611 0-2.917 1.33-2.917 2.97 0 1.64 1.306 2.97 2.917 2.97zm.253 4.724l2.22 8.806 5.896.871c.101.015.194.066.264.144l4.86 5.484c.165.186.153.475-.027.646-.18.17-.46.158-.624-.028l-4.754-5.364-6.03-.891c-.185-.028-.327-.17-.368-.347L3.932 11.48c-.037-.141-.009-.3.09-.419.16-.192.439-.214.624-.05l4.515 4.004h4.919c.244 0 .441.204.441.457 0 .252-.197.457-.441.457H8.998c-.106 0-.208-.04-.288-.11l-3.568-3.164zm14.574 3.359l-2.409-1.002-.852 2.415c-.081.23-.337.351-.571.272-.234-.08-.358-.33-.277-.56l2.019-5.721c.08-.23.336-.352.57-.272.235.08.359.33.278.56l-.873 2.472 2.315.963c.392-1.917.518-3.833.378-5.748-.02-.277.223-.503.503-.469 1.826.224 3.502.598 5.028 1.122 1.533.526 2.914 1.204 4.144 2.033.205.138.256.412.116.612s-.42.251-.624.114c-1.163-.785-2.473-1.427-3.932-1.928-1.315-.452-2.75-.788-4.307-1.008.091 1.915-.072 3.831-.49 5.746-.464 2.122-1.243 3.804-2.345 5.039-.163.183-.446.201-.633.041-.186-.16-.205-.438-.042-.621.893-1 1.562-2.353 2.004-4.06zm-.23 15.437c-.147.236-.472.316-.725.178-.252-.138-.338-.44-.19-.677l1.855-2.97c.148-.237.473-.317.726-.179.252.138.338.441.19.677l-1.855 2.971z"/>
</svg>
