<svg width="41" height="41" viewBox="0 0 41 41" fill="none" xmlns="http://www.w3.org/2000/svg">
<g filter="url(#filter0_d_1_1571)">
<circle cx="20.6134" cy="16.5902" r="15.8126" fill="#101B73" fill-opacity="0.42"/>
</g>
<path d="M20.2969 22.7573V21.2946C20.8624 21.2457 21.3925 20.9989 21.7938 20.5975C22.1952 20.1962 22.442 19.6661 22.4909 19.1006H23.9536C23.9063 20.0551 23.5058 20.958 22.8301 21.6338C22.1543 22.3096 21.2514 22.71 20.2969 22.7573Z" fill="white"/>
<path d="M20.2969 25.6827C18.5519 25.6806 16.8789 24.9864 15.645 23.7525C14.4111 22.5186 13.717 20.8457 13.7148 19.1007C13.7542 17.8177 14.1311 16.5678 14.8075 15.4769L19.6774 7.7189C19.7478 7.62018 19.8407 7.53969 19.9484 7.48416C20.0562 7.42863 20.1756 7.39966 20.2969 7.39966C20.4181 7.39966 20.5375 7.42863 20.6453 7.48416C20.753 7.53969 20.846 7.62018 20.9163 7.7189L25.765 15.4389C26.4528 16.5399 26.8371 17.8032 26.8789 19.1007C26.8767 20.8457 26.1826 22.5186 24.9487 23.7525C23.7148 24.9864 22.0419 25.6806 20.2969 25.6827ZM20.2969 9.48215L16.0683 16.2163C15.5234 17.0829 15.2162 18.0777 15.1775 19.1007C15.1775 20.4584 15.7169 21.7605 16.6769 22.7206C17.637 23.6807 18.9391 24.22 20.2969 24.22C21.6546 24.22 22.9567 23.6807 23.9168 22.7206C24.8768 21.7605 25.4162 20.4584 25.4162 19.1007C25.3745 18.0634 25.0596 17.0555 24.5035 16.179L20.2969 9.48215Z" fill="white"/>
<defs>
<filter id="filter0_d_1_1571" x="0.800781" y="0.777588" width="39.6255" height="39.6252" filterUnits="userSpaceOnUse" color-interpolation-filters="sRGB">
<feFlood flood-opacity="0" result="BackgroundImageFix"/>
<feColorMatrix in="SourceAlpha" type="matrix" values="0 0 0 0 0 0 0 0 0 0 0 0 0 0 0 0 0 0 127 0" result="hardAlpha"/>
<feOffset dy="4"/>
<feGaussianBlur stdDeviation="2"/>
<feComposite in2="hardAlpha" operator="out"/>
<feColorMatrix type="matrix" values="0 0 0 0 0 0 0 0 0 0.39875 0 0 0 0 0.6875 0 0 0 0.1 0"/>
<feBlend mode="normal" in2="BackgroundImageFix" result="effect1_dropShadow_1_1571"/>
<feBlend mode="normal" in="SourceGraphic" in2="effect1_dropShadow_1_1571" result="shape"/>
</filter>
</defs>
</svg>
