<svg id="Layer_1" data-name="Layer 1" xmlns="http://www.w3.org/2000/svg" viewBox="0 0 16 16"><defs><style>.cls-1{fill:#1a237e;}</style></defs><path class="cls-1" d="M3,2.5A.5.5,0,0,1,3.5,2h5a.5.5,0,0,1,.5.5v5a.5.5,0,0,1-.5.5h-5A.5.5,0,0,1,3,7.5Z"/><path class="cls-1" d="M1,2A2,2,0,0,1,3,0H9a2,2,0,0,1,2,2v8a2,2,0,0,1,2,2v.5a.5.5,0,0,0,1,0V8h-.5a.5.5,0,0,1-.5-.5V4.38a.5.5,0,0,1,.5-.5H15a3.2,3.2,0,0,0-.2-1.23,1,1,0,0,0-.39-.46A1.82,1.82,0,0,0,13.5,2a.5.5,0,0,1,0-1,2.68,2.68,0,0,1,1.41.34,1.92,1.92,0,0,1,.8.9A5.29,5.29,0,0,1,16,4.32V7.5a.5.5,0,0,1-.5.5H15v4.5a1.5,1.5,0,0,1-3,0V12a1,1,0,0,0-1-1v4h.5a.5.5,0,0,1,0,1H.5a.5.5,0,0,1,0-1H1Zm9,0A1,1,0,0,0,9,1H3A1,1,0,0,0,2,2V15h8Z"/></svg>