<svg id="_19253118171536669843" data-name=" 19253118171536669843" xmlns="http://www.w3.org/2000/svg" viewBox="0 0 25.77 20.69"><defs><style>.cls-1{fill:#1a237e;}</style></defs><path id="Path_30" data-name="Path 30" class="cls-1" d="M18.46,14.78h0a.41.41,0,0,1-.36-.2l-4-6.65,0,0A5.2,5.2,0,0,1,15.85.75,5.26,5.26,0,0,1,18.55,0h0a5.18,5.18,0,0,1,5.18,5.19h0A5.19,5.19,0,0,1,23,7.88L23,8l-4.15,6.64A.42.42,0,0,1,18.46,14.78ZM14.9,7.57l3.57,6,3.74-6a.21.21,0,0,1,0-.07,4.29,4.29,0,0,0,.67-2.31h0A4.36,4.36,0,0,0,18.57.83h0a4.36,4.36,0,0,0-3.7,6.67Z"/><path id="Path_31" data-name="Path 31" class="cls-1" d="M18.56,7.14h0a2.2,2.2,0,1,1,0-4.4h0a2.2,2.2,0,0,1,2.2,2.2h0a2.2,2.2,0,0,1-2.2,2.19Zm0-3.57a1.37,1.37,0,1,0,0,2.73h0a1.37,1.37,0,0,0,0-2.73Zm1.78,1.37Z"/><path id="Path_32" data-name="Path 32" class="cls-1" d="M25.35,20.69H.42A.42.42,0,0,1,0,20.27a.45.45,0,0,1,0-.16L4.57,9.5A.42.42,0,0,1,5,9.24H15.66a.42.42,0,0,1,0,.84H5.23L1.05,19.86H24.72l-4-9.48a.42.42,0,0,1,.77-.33h0l4.3,10.06a.41.41,0,0,1-.22.54.32.32,0,0,1-.16,0Z"/><path id="Path_33" data-name="Path 33" class="cls-1" d="M18.51,20.61a.42.42,0,0,1-.42-.37s-.26-2.06-3.13-2.55c-.27-.05-.7-.09-1.19-.13-2.71-.27-5.19-.6-5.67-1.88a2,2,0,0,1,.5-1.94c.4-.55.53-.79.33-1.13A2.2,2.2,0,0,0,8,12c-.77-.34-1.83-.8-1.83-2.06a.41.41,0,0,1,.41-.42h0A.43.43,0,0,1,7,10c0,.68.5.94,1.33,1.3a2.63,2.63,0,0,1,1.31.91,1.77,1.77,0,0,1-.36,2.05c-.34.47-.55.78-.4,1.16.33.89,3.46,1.19,5,1.34.5.05.94.09,1.24.14,3.48.59,3.81,3.17,3.82,3.28a.41.41,0,0,1-.36.46h0Z"/></svg>