<svg width="19" height="20" viewBox="0 0 19 20" fill="none" xmlns="http://www.w3.org/2000/svg">
<path d="M9.32713 0.198543C9.08189 0.302583 9.07446 0.343456 9.07446 1.44703C9.07446 2.39826 9.07818 2.44656 9.15249 2.54689C9.19337 2.60262 9.29369 2.67322 9.37544 2.70295C9.50177 2.74754 9.53893 2.74382 9.65783 2.69552C9.91793 2.58776 9.92908 2.54317 9.94023 1.51763C9.95509 0.484654 9.9328 0.365751 9.72843 0.228269C9.58352 0.13166 9.49434 0.124228 9.32713 0.198543Z" fill="#0A0A5F"/>
<path d="M3.76598 1.0345C3.62107 1.07909 3.53189 1.16826 3.48359 1.31689C3.40556 1.54727 3.47244 1.64016 4.26018 2.42047L4.99589 3.15247H5.17425C5.32288 3.15247 5.36746 3.13389 5.47522 3.02613C5.64243 2.85892 5.64986 2.66942 5.4938 2.46134C5.33031 2.2384 4.09668 1.0345 4.0298 1.0345C4.00007 1.0345 3.95177 1.02707 3.92204 1.01963C3.89603 1.0122 3.82543 1.01963 3.76598 1.0345Z" fill="#0A0A5F"/>
<path d="M15.0001 1.02707C14.9035 1.04193 13.7033 2.19752 13.5101 2.46134C13.354 2.66942 13.3615 2.85892 13.5287 3.02613C13.6364 3.13389 13.681 3.15247 13.8296 3.15247H14.008L14.7474 2.42047C15.5575 1.61415 15.6132 1.53612 15.5091 1.28717C15.4274 1.09023 15.2268 0.986193 15.0001 1.02707Z" fill="#0A0A5F"/>
<path d="M9.07477 3.62054C8.39865 3.68741 7.92686 3.79143 7.39191 3.99203C5.56417 4.66815 4.1302 6.25442 3.65098 8.13046C3.47266 8.82144 3.47266 8.78057 3.4578 12.332L3.44294 15.694L3.17547 15.7386C2.82255 15.7981 2.48449 15.9727 2.23188 16.2253C2.01641 16.4407 1.91982 16.6005 1.80838 16.9311C1.74894 17.1057 1.73779 17.2469 1.73779 18.001C1.73779 18.9669 1.74894 19.0152 1.98669 19.1118C2.16501 19.1898 16.839 19.1898 17.0173 19.1118C17.255 19.0152 17.2662 18.9669 17.2662 18.001C17.2662 17.2469 17.255 17.1057 17.1956 16.9311C17.0841 16.6005 16.9876 16.4407 16.7721 16.2253C16.5195 15.9727 16.1814 15.7981 15.8285 15.7386L15.561 15.694L15.5462 12.332C15.5313 8.78057 15.5313 8.82144 15.353 8.13046C14.7623 5.82349 12.7748 4.02918 10.4121 3.67626C10.1187 3.63169 9.29766 3.59825 9.07477 3.62054ZM10.245 4.5307C11.3557 4.68672 12.3439 5.18081 13.1575 5.99809C13.8856 6.7225 14.3723 7.6178 14.5729 8.59483C14.6843 9.12978 14.7029 9.7093 14.7029 12.7258V15.7089H9.50199H4.30109V12.7258C4.30109 9.7093 4.31967 9.12978 4.43111 8.59483C4.63172 7.6178 5.11837 6.7225 5.8465 5.99809C7.0167 4.82418 8.58811 4.30037 10.245 4.5307ZM15.7951 16.6153C16.0403 16.6896 16.2037 16.8271 16.3152 17.0537C16.4043 17.2357 16.4117 17.2803 16.4117 17.7781V18.3094H9.50199H2.59223V17.7781C2.59223 17.2803 2.59966 17.2357 2.68881 17.0537C2.80026 16.8308 2.96372 16.6896 3.19404 16.6191C3.43923 16.541 15.5425 16.541 15.7951 16.6153Z" fill="#0A0A5F"/>
<path d="M8.65083 5.4223C7.0014 5.76779 5.73833 6.97514 5.31482 8.60971C5.19223 9.08893 5.15508 9.69447 5.24424 9.85421C5.32597 10.0065 5.42627 10.066 5.60459 10.0697C5.9055 10.0734 6.02437 9.9025 6.05781 9.4047C6.12096 8.56141 6.49989 7.74785 7.09799 7.17575C7.69609 6.60365 8.43908 6.26931 9.25264 6.20987C9.75044 6.17643 9.92133 6.05755 9.91762 5.75665C9.9139 5.58576 9.86189 5.48546 9.72072 5.40373C9.57956 5.322 9.0929 5.32943 8.65083 5.4223Z" fill="#0A0A5F"/>
<path d="M0.270199 4.93525C0.140149 4.98727 0.024961 5.14705 0.00638231 5.29568C-0.0270593 5.57064 0.0361082 5.62266 1.06537 6.13915C1.83452 6.52558 2.02403 6.60733 2.15779 6.60733C2.36587 6.60733 2.49964 6.50701 2.55909 6.31007C2.59625 6.19117 2.59253 6.14658 2.53308 6.02396C2.4662 5.89019 2.40303 5.85304 1.48524 5.38857C0.946463 5.12104 0.470849 4.89809 0.42626 4.90181C0.381671 4.90181 0.311072 4.91667 0.270199 4.93525Z" fill="#0A0A5F"/>
<path d="M17.5262 5.38857C16.601 5.85304 16.5378 5.89019 16.4709 6.02396C16.3334 6.31007 16.5267 6.60733 16.8462 6.60733C16.98 6.60733 17.1695 6.52558 17.9386 6.13915C18.6929 5.76014 18.8824 5.65239 18.9419 5.55578C19.0942 5.31054 18.9307 4.96126 18.6372 4.91296C18.5257 4.89438 18.3808 4.95754 17.5262 5.38857Z" fill="#0A0A5F"/>
</svg>
