<svg id="noun-share-2124691" xmlns="http://www.w3.org/2000/svg" width="19.388" height="20.879" viewBox="0 0 19.388 20.879">
  <path id="Path_131" data-name="Path 131" d="M129.356,58.593a3.344,3.344,0,0,0,2.361-.969l7.034,4.027a3.081,3.081,0,0,0-.075.671,3.356,3.356,0,1,0,3.355-3.356,3.328,3.328,0,0,0-2.933,1.74l-6.786-3.9a3.327,3.327,0,0,0,.4-1.566,3.067,3.067,0,0,0-.3-1.367l6.786-3.9a3.369,3.369,0,1,0-.522-1.814,3.7,3.7,0,0,0,.124.895l-6.935,3.977a3.352,3.352,0,1,0-2.51,5.568Zm12.676,1.367a2.361,2.361,0,1,1-2.361,2.361,2.376,2.376,0,0,1,2.361-2.361Zm0-14.168a2.361,2.361,0,1,1-2.361,2.361,2.376,2.376,0,0,1,2.361-2.361Zm-12.676,7.084a2.361,2.361,0,1,1-2.361,2.361A2.376,2.376,0,0,1,129.356,52.876Z" transform="translate(-126 -44.798)" fill="#0a0a5f"/>
</svg>
