<svg xmlns="http://www.w3.org/2000/svg" width="34" height="22" viewBox="0 0 34 22">
    <path fill="#95A5D5" stroke="#95A5D5" stroke-width=".3" d="M23.54 1.004c.574 0 1.041.47 1.041 1.047h0v1.114h3.796c1.167 0 2.117.955 2.117 2.128h0v.54c0 .244-.171.447-.4.495h0l.834 3.352c1.274.195 2.253 1.303 2.253 2.637h0v5.403c0 .28-.226.507-.504.507h0-1.647v.034c0 1.769-1.43 3.208-3.19 3.208s-3.192-1.44-3.192-3.208l.001-.034h0-11.355v.034c0 1.769-1.431 3.208-3.19 3.208-1.76 0-3.192-1.44-3.192-3.208l.001-.034h0-2.722c-.574 0-1.041-.47-1.041-1.047h0v-1.114H1.504c-.278 0-.504-.227-.504-.507s.226-.507.504-.507H6.34c.278 0 .504.227.504.507s-.226.507-.504.507h0-2.183v1.114c0 .019.015.034.033.034h2.897c.432-1.257 1.62-2.162 3.015-2.162s2.583.905 3.016 2.162h10.454v-3.816c0-.28.226-.507.504-.507.279 0 .504.227.504.507h0v3.816h.243c.433-1.256 1.62-2.161 3.016-2.161 1.395 0 2.583.905 3.015 2.16h1.318v-2.228h-.571c-.87 0-1.579-.712-1.579-1.587h0v-1.08c0-.28.226-.507.504-.507h1.567c-.214-.665-.835-1.148-1.566-1.149h0-5.947v.575c0 .28-.225.506-.504.506-.278 0-.503-.227-.503-.506h0V2.05c0-.019-.015-.034-.034-.034h0H4.191c-.018 0-.033.015-.033.034h0v9.185c0 .28-.226.507-.504.507-.279 0-.504-.227-.504-.507h0V2.051c0-.578.467-1.047 1.041-1.047h0zM10.103 16.066c-1.204 0-2.183.984-2.183 2.195 0 1.21.98 2.195 2.183 2.195 1.204 0 2.184-.985 2.184-2.195s-.98-2.195-2.184-2.195zm17.737 0c-1.204 0-2.184.984-2.184 2.195 0 1.21.98 2.195 2.184 2.195 1.204 0 2.183-.985 2.183-2.195s-.98-2.195-2.183-2.195zm-17.737 1.148c.575 0 1.042.47 1.042 1.047s-.467 1.047-1.042 1.047c-.574 0-1.041-.47-1.041-1.047s.467-1.047 1.041-1.047zm17.737 0c.574 0 1.041.47 1.041 1.047s-.467 1.047-1.041 1.047c-.574 0-1.042-.47-1.042-1.047s.468-1.047 1.042-1.047zm-5.912-2.161c.278 0 .504.226.504.506s-.226.507-.504.507h0-7.525c-.278 0-.504-.227-.504-.507s.226-.506.504-.506h0zm10.245-2.23h-1.142v.575c0 .316.256.574.571.574h.571v-1.148zm-23.145.068c.279 0 .504.227.504.507s-.225.506-.504.506h0-6.45c-.278 0-.503-.226-.503-.506s.226-.507.504-.507h0zm20.03-6.551h-4.477v3.31h5.3l-.822-3.31zm-.68-2.162H24.58v1.149h4.905v-.034c0-.615-.498-1.115-1.109-1.115h0z"/>
</svg>
